# xmcd
#
# Track frame offsets:
#	150
#	24158
#	47188
#	72969
#	102667
#	120422
#	143095
#	162721
#	184619
#	206185
#	242617
#	266123
#
# Disc length: 3890 seconds
#
# Revision: 0
# Processed by: cddbd v1.5.2PL0 Copyright (c) Steve Scherf et al.
# Submitted via: EasyCDDAExtractor 5.0.4.1
#
DISCID=b00f300c
DTITLE=Various Artist - Road to Freedom
DYEAR=2001
DGENRE=Blues
TTITLE0=Roy Cox and the BluesKnights - Road to Freedom
TTITLE1=Roy cox and the BluesKnights - Stranger
TTITLE2=Roy cox and the BluesKnights - Whisky Song
TTITLE3=Roy cox and the BluesKnights - Cheap Guitar
TTITLE4=Roy cox and the BluesKnights - I Can't Wait
TTITLE5=Roy cox and the BluesKnights - Up and Down
TTITLE6=Roy cox and the BluesKnights - In the City
TTITLE7=Roy cox and the BluesKnights - Combination of Things
TTITLE8=Roy cox and the BluesKnights - Rattlin' Bones
TTITLE9=Roy cox and the BluesKnights - Fill Me Up
TTITLE10=Roy cox and the BluesKnights - Message from the Road
TTITLE11=Roy cox and the BluesKnights - Ballad of John Lee
EXTD=
EXTT0=
EXTT1=
EXTT2=
EXTT3=
EXTT4=
EXTT5=
EXTT6=
EXTT7=
EXTT8=
EXTT9=
EXTT10=
EXTT11=
PLAYORDER=
